# xmcd CD database file
#
# Track frame offsets:
#	150
#	18123
#	33696
#
# Disc length: 690 seconds
#
# Revision: 0
# Processed by: cddbd v1.5.2PL0 Copyright (c) Steve Scherf et al.
# Submitted via: CDex 1.70beta2
#
DISCID=1a02b003
DTITLE=Rae Spoon - Great Lakes Demo
DYEAR=2008
DGENRE=Country
TTITLE0=Great Lakes
TTITLE1=If you loose your horses
TTITLE2=I'll be a ghost for you
EXTD=YEAR: 2008
EXTT0=
EXTT1=
EXTT2=
PLAYORDER=
